<svg width="59" height="40" viewBox="0 0 59 40" fill="none" xmlns="http://www.w3.org/2000/svg">
<rect width="58.45" height="40" fill="#3C3D37"/>
<path d="M26.725 20.0069L34.075 27.3569C34.325 27.6069 34.446 27.8986 34.438 28.2319C34.43 28.5653 34.3007 28.8569 34.05 29.1069C33.7993 29.3569 33.5077 29.4819 33.175 29.4819C32.8423 29.4819 32.5507 29.3569 32.3 29.1069L24.6 21.4319C24.4 21.2319 24.25 21.0069 24.15 20.7569C24.05 20.5069 24 20.2569 24 20.0069C24 19.7569 24.05 19.5069 24.15 19.2569C24.25 19.0069 24.4 18.7819 24.6 18.5819L32.3 10.8819C32.55 10.6319 32.846 10.5109 33.188 10.5189C33.53 10.5269 33.8257 10.6563 34.075 10.9069C34.3243 11.1576 34.4493 11.4493 34.45 11.7819C34.4507 12.1146 34.3257 12.4063 34.075 12.6569L26.725 20.0069Z" fill="#ECDFCC"/>
</svg>
