<svg width="59" height="40" viewBox="0 0 59 40" fill="none" xmlns="http://www.w3.org/2000/svg">
<rect width="58.45" height="40" transform="matrix(-1 0 0 1 58.8984 0)" fill="#3C3D37"/>
<path d="M32.1734 20.0069L24.8234 27.3569C24.5734 27.6069 24.4524 27.8986 24.4604 28.2319C24.4684 28.5653 24.5978 28.8569 24.8484 29.1069C25.0991 29.3569 25.3908 29.4819 25.7234 29.4819C26.0561 29.4819 26.3478 29.3569 26.5984 29.1069L34.2984 21.4319C34.4984 21.2319 34.6484 21.0069 34.7484 20.7569C34.8484 20.5069 34.8984 20.2569 34.8984 20.0069C34.8984 19.7569 34.8484 19.5069 34.7484 19.2569C34.6484 19.0069 34.4984 18.7819 34.2984 18.5819L26.5984 10.8819C26.3484 10.6319 26.0524 10.5109 25.7104 10.5189C25.3684 10.5269 25.0728 10.6563 24.8234 10.9069C24.5741 11.1576 24.4491 11.4493 24.4484 11.7819C24.4478 12.1146 24.5728 12.4063 24.8234 12.6569L32.1734 20.0069Z" fill="#ECDFCC"/>
</svg>
