<svg width="438" height="77" viewBox="0 0 438 77" fill="none" xmlns="http://www.w3.org/2000/svg">
<path d="M153.648 34.36V34.192H168V34.36H153.648ZM163.848 9.28L176.52 45.832H179.952V46H164.568V45.832H169.248L159.864 16.816L149.688 45.832H155.448V46H144.864V45.832H149.496L162.288 9.28H163.848ZM200.717 46L183.173 21.52H190.325L208.061 46H200.717ZM180.461 46V45.832H188.741V46H180.461ZM183.893 46L195.317 32.248H195.533L184.109 46H183.893ZM196.757 46V45.832H209.957V46H196.757ZM181.517 21.688V21.52H194.117V21.688H181.517ZM195.389 33.16L204.821 21.616H205.037L195.629 33.16H195.389ZM200.717 21.688V21.52H208.229V21.688H200.717ZM215.766 46V21.52H222.03V46H215.766ZM211.662 46V45.832H226.59V46H211.662ZM211.662 21.688V21.52H226.59V21.688H211.662ZM242.767 46.48C240.239 46.48 237.975 45.968 235.975 44.944C233.975 43.904 232.391 42.432 231.223 40.528C230.055 38.624 229.471 36.368 229.471 33.76C229.471 31.152 230.087 28.896 231.319 26.992C232.551 25.088 234.175 23.624 236.191 22.6C238.207 21.56 240.399 21.04 242.767 21.04C245.135 21.04 247.327 21.56 249.343 22.6C251.375 23.624 253.007 25.088 254.239 26.992C255.471 28.896 256.087 31.152 256.087 33.76C256.087 36.368 255.503 38.624 254.335 40.528C253.167 42.432 251.575 43.904 249.559 44.944C247.543 45.968 245.279 46.48 242.767 46.48ZM242.767 46.312C243.935 46.312 244.927 45.992 245.743 45.352C246.559 44.696 247.215 43.792 247.711 42.64C248.207 41.488 248.567 40.16 248.791 38.656C249.031 37.136 249.151 35.504 249.151 33.76C249.151 32.016 249.015 30.392 248.743 28.888C248.471 27.368 248.063 26.032 247.519 24.88C246.991 23.728 246.327 22.832 245.527 22.192C244.727 21.536 243.807 21.208 242.767 21.208C241.727 21.208 240.807 21.536 240.007 22.192C239.207 22.832 238.543 23.728 238.015 24.88C237.487 26.032 237.087 27.368 236.815 28.888C236.543 30.392 236.407 32.016 236.407 33.76C236.407 35.504 236.519 37.136 236.743 38.656C236.983 40.16 237.351 41.488 237.847 42.64C238.343 43.792 238.991 44.696 239.791 45.352C240.607 45.992 241.599 46.312 242.767 46.312ZM272.012 46.48L261.476 21.52H267.836L275.924 40.216L283.052 21.52H283.22L273.908 46.48H272.012ZM259.244 46V45.832H263.732V46H259.244ZM261.404 46V21.688H259.004V21.52H261.572V46H261.404ZM281.108 46V45.832H292.196V46H281.108ZM283.172 46V21.52H291.62V21.688H289.46V46H283.172Z" fill="#ECDFCC"/>
<path d="M121.453 73.16L117.005 61H119.117L122.517 70.16L125.709 61H125.941L121.717 73.16H121.453ZM117.117 61V72.784H118.325V73H115.749V72.784H116.893V61.216H115.669V61H117.117ZM129.093 61V61.216H127.973V72.784H129.093V73H124.597V72.784H125.877V61H129.093ZM135.177 73.16C134.345 73.16 133.598 73.0027 132.937 72.688C132.281 72.3733 131.724 71.936 131.265 71.376C130.806 70.816 130.457 70.1627 130.217 69.416C129.982 68.6693 129.865 67.864 129.865 67C129.865 66.136 129.99 65.3307 130.241 64.584C130.497 63.8373 130.857 63.184 131.321 62.624C131.79 62.064 132.35 61.6267 133.001 61.312C133.657 60.9973 134.382 60.84 135.177 60.84C135.977 60.84 136.7 60.9973 137.345 61.312C137.996 61.6267 138.556 62.064 139.025 62.624C139.494 63.184 139.854 63.8373 140.105 64.584C140.356 65.3307 140.481 66.136 140.481 67C140.481 67.864 140.361 68.6693 140.121 69.416C139.886 70.1627 139.54 70.816 139.081 71.376C138.628 71.936 138.073 72.3733 137.417 72.688C136.761 73.0027 136.014 73.16 135.177 73.16ZM135.177 72.96C135.79 72.96 136.286 72.8 136.665 72.48C137.044 72.16 137.334 71.7227 137.537 71.168C137.745 70.608 137.886 69.9707 137.961 69.256C138.036 68.536 138.073 67.784 138.073 67C138.073 66.2107 138.028 65.4587 137.937 64.744C137.846 64.0293 137.694 63.3947 137.481 62.84C137.268 62.28 136.972 61.84 136.593 61.52C136.22 61.2 135.748 61.04 135.177 61.04C134.606 61.04 134.132 61.2027 133.753 61.528C133.38 61.848 133.084 62.2853 132.865 62.84C132.652 63.3947 132.5 64.0293 132.409 64.744C132.318 65.4587 132.273 66.2107 132.273 67C132.273 67.784 132.31 68.536 132.385 69.256C132.465 69.9707 132.606 70.6053 132.809 71.16C133.012 71.7147 133.305 72.1547 133.689 72.48C134.073 72.8 134.569 72.96 135.177 72.96ZM146.11 61C147.347 61 148.409 61.256 149.294 61.768C150.185 62.28 150.867 62.9893 151.342 63.896C151.822 64.7973 152.062 65.832 152.062 67C152.062 67.8747 151.918 68.68 151.63 69.416C151.347 70.1467 150.942 70.7813 150.414 71.32C149.891 71.8533 149.265 72.2667 148.534 72.56C147.809 72.8533 147.001 73 146.11 73H141.246V72.784H142.686V61.216H141.246V61H146.11ZM144.79 72.784H146.11C146.777 72.784 147.334 72.6293 147.782 72.32C148.235 72.0053 148.598 71.5787 148.87 71.04C149.147 70.5013 149.345 69.8853 149.462 69.192C149.585 68.4933 149.646 67.7627 149.646 67C149.646 66.2373 149.577 65.5093 149.438 64.816C149.305 64.1227 149.097 63.5067 148.814 62.968C148.531 62.424 148.166 61.9973 147.718 61.688C147.275 61.3733 146.739 61.216 146.11 61.216H144.79V72.784ZM152.832 73V72.784H154.272V61.216H152.832V61H161.728V64.28H161.512C161.464 63.7093 161.325 63.192 161.096 62.728C160.866 62.264 160.538 61.896 160.112 61.624C159.69 61.352 159.168 61.216 158.544 61.216H156.376V72.784H158.376C159.106 72.784 159.706 72.6427 160.176 72.36C160.645 72.0773 161 71.6827 161.24 71.176C161.48 70.6693 161.624 70.0773 161.672 69.4H161.888V73H152.832ZM158.936 68.696C158.888 68.3387 158.773 68.0267 158.592 67.76C158.41 67.488 158.186 67.2773 157.92 67.128C157.653 66.9787 157.368 66.904 157.064 66.904H155.88V66.688H157.064C157.368 66.688 157.653 66.6187 157.92 66.48C158.186 66.3413 158.41 66.144 158.592 65.888C158.773 65.632 158.888 65.3253 158.936 64.968H159.152V68.696H158.936ZM162.48 73V72.784H163.92V61.216H162.48V61H167.456V61.216H166.024V72.784H167.968C168.57 72.784 169.074 72.704 169.48 72.544C169.89 72.384 170.218 72.1547 170.464 71.856C170.714 71.5573 170.901 71.2 171.024 70.784C171.146 70.368 171.226 69.9067 171.264 69.4H171.48V73H162.48ZM181.341 73.16L176.893 61H179.005L182.405 70.16L185.597 61H185.829L181.605 73.16H181.341ZM177.005 61V72.784H178.213V73H175.637V72.784H176.781V61.216H175.557V61H177.005ZM188.981 61V61.216H187.861V72.784H188.981V73H184.485V72.784H185.765V61H188.981ZM192.289 69.208V68.992H197.225V69.208H192.289ZM195.745 60.768L199.913 72.784H201.113V73H195.969V72.784H197.489L194.425 63.304L191.105 72.784H192.889V73H189.361V72.784H190.857L195.081 60.768H195.745ZM203.341 61V72.784H205.213V73H201.493V72.784H203.117V61.216H201.493V61H203.341ZM213.013 61V61.216H211.333V73.16H211.037L203.181 61H205.693L211.109 69.568V61.216H209.269V61H213.013ZM216.319 69.208V68.992H221.255V69.208H216.319ZM219.775 60.768L223.943 72.784H225.143V73H219.999V72.784H221.519L218.455 63.304L215.135 72.784H216.919V73H213.391V72.784H214.887L219.111 60.768H219.775ZM232.1 68.328H236.908V68.56H236.036V70.456C235.838 70.7173 235.606 71.0053 235.34 71.32C235.073 71.6293 234.758 71.9253 234.396 72.208C234.033 72.4853 233.606 72.7147 233.116 72.896C232.625 73.072 232.054 73.16 231.404 73.16C230.246 73.16 229.257 72.9013 228.436 72.384C227.62 71.8667 226.996 71.1467 226.564 70.224C226.132 69.296 225.916 68.2213 225.916 67C225.916 66.088 226.06 65.256 226.348 64.504C226.636 63.7467 227.038 63.096 227.556 62.552C228.078 62.0027 228.686 61.5813 229.38 61.288C230.073 60.9893 230.825 60.84 231.636 60.84C232.126 60.84 232.596 60.9253 233.044 61.096C233.497 61.2667 233.9 61.504 234.252 61.808L235.516 61H235.708V64.424H235.484C235.425 63.976 235.289 63.5547 235.076 63.16C234.868 62.76 234.598 62.408 234.268 62.104C233.937 61.8 233.564 61.5627 233.148 61.392C232.732 61.216 232.292 61.128 231.828 61.128C231.198 61.128 230.66 61.296 230.212 61.632C229.764 61.9627 229.401 62.4107 229.124 62.976C228.852 63.536 228.649 64.1653 228.516 64.864C228.388 65.5573 228.324 66.2693 228.324 67C228.324 67.7253 228.369 68.4427 228.46 69.152C228.55 69.856 228.708 70.4933 228.932 71.064C229.161 71.6347 229.476 72.0907 229.876 72.432C230.276 72.7733 230.785 72.944 231.404 72.944C231.804 72.944 232.142 72.872 232.42 72.728C232.702 72.5787 232.934 72.3947 233.116 72.176C233.297 71.9573 233.441 71.7413 233.548 71.528C233.66 71.3093 233.74 71.1333 233.788 71V68.56H232.1V68.328ZM237.187 73V72.784H238.627V61.216H237.187V61H246.083V64.28H245.867C245.819 63.7093 245.681 63.192 245.451 62.728C245.222 62.264 244.894 61.896 244.467 61.624C244.046 61.352 243.523 61.216 242.899 61.216H240.731V72.784H242.731C243.462 72.784 244.062 72.6427 244.531 72.36C245.001 72.0773 245.355 71.6827 245.595 71.176C245.835 70.6693 245.979 70.0773 246.027 69.4H246.243V73H237.187ZM243.291 68.696C243.243 68.3387 243.129 68.0267 242.947 67.76C242.766 67.488 242.542 67.2773 242.275 67.128C242.009 66.9787 241.723 66.904 241.419 66.904H240.235V66.688H241.419C241.723 66.688 242.009 66.6187 242.275 66.48C242.542 66.3413 242.766 66.144 242.947 65.888C243.129 65.632 243.243 65.3253 243.291 64.968H243.507V68.696H243.291ZM252.619 73.16L248.171 61H250.283L253.683 70.16L256.875 61H257.107L252.883 73.16H252.619ZM248.283 61V72.784H249.491V73H246.915V72.784H248.059V61.216H246.835V61H248.283ZM260.259 61V61.216H259.139V72.784H260.259V73H255.763V72.784H257.043V61H260.259ZM260.64 73V72.784H262.08V61.216H260.64V61H269.536V64.28H269.32C269.272 63.7093 269.133 63.192 268.904 62.728C268.674 62.264 268.346 61.896 267.92 61.624C267.498 61.352 266.976 61.216 266.352 61.216H264.184V72.784H266.184C266.914 72.784 267.514 72.6427 267.984 72.36C268.453 72.0773 268.808 71.6827 269.048 71.176C269.288 70.6693 269.432 70.0773 269.48 69.4H269.696V73H260.64ZM266.744 68.696C266.696 68.3387 266.581 68.0267 266.4 67.76C266.218 67.488 265.994 67.2773 265.728 67.128C265.461 66.9787 265.176 66.904 264.872 66.904H263.688V66.688H264.872C265.176 66.688 265.461 66.6187 265.728 66.48C265.994 66.3413 266.218 66.144 266.4 65.888C266.581 65.632 266.696 65.3253 266.744 64.968H266.96V68.696H266.744ZM272.136 61V72.784H274.008V73H270.288V72.784H271.912V61.216H270.288V61H272.136ZM281.808 61V61.216H280.128V73.16H279.832L271.976 61H274.488L279.904 69.568V61.216H278.064V61H281.808ZM284.598 73V72.784H286.358V61.216H285.118C284.675 61.216 284.299 61.304 283.99 61.48C283.681 61.656 283.427 61.904 283.23 62.224C283.033 62.5387 282.881 62.912 282.774 63.344C282.673 63.7707 282.603 64.2373 282.566 64.744H282.342V61H292.47V64.744H292.254C292.217 64.2373 292.145 63.7707 292.038 63.344C291.931 62.912 291.779 62.5387 291.582 62.224C291.385 61.904 291.131 61.656 290.822 61.48C290.513 61.304 290.137 61.216 289.694 61.216H288.454V72.784H290.214V73H284.598ZM292.849 73V72.784H294.289V61.216H292.849V61H297.825V61.216H296.393V72.784H298.337C298.94 72.784 299.444 72.704 299.849 72.544C300.26 72.384 300.588 72.1547 300.833 71.856C301.084 71.5573 301.271 71.2 301.393 70.784C301.516 70.368 301.596 69.9067 301.633 69.4H301.849V73H292.849ZM302.279 73V72.784H303.719V61.216H302.279V61H307.255V61.216H305.823V72.784H307.767C308.369 72.784 308.873 72.704 309.279 72.544C309.689 72.384 310.017 72.1547 310.263 71.856C310.513 71.5573 310.7 71.2 310.823 70.784C310.945 70.368 311.025 69.9067 311.063 69.4H311.279V73H302.279ZM317.724 73.16C316.577 73.16 315.582 72.8933 314.74 72.36C313.902 71.8267 313.252 71.096 312.788 70.168C312.329 69.24 312.1 68.184 312.1 67C312.1 65.8107 312.329 64.7547 312.788 63.832C313.252 62.904 313.902 62.1733 314.74 61.64C315.582 61.1067 316.577 60.84 317.724 60.84C318.236 60.84 318.716 60.928 319.164 61.104C319.612 61.28 320.006 61.528 320.348 61.848L321.508 61H321.7V64.424H321.468C321.345 63.768 321.11 63.192 320.764 62.696C320.422 62.2 320.004 61.8133 319.508 61.536C319.012 61.2587 318.47 61.12 317.884 61.12C317.254 61.12 316.721 61.288 316.284 61.624C315.852 61.96 315.505 62.4107 315.244 62.976C314.988 63.536 314.801 64.1653 314.684 64.864C314.566 65.5573 314.508 66.2693 314.508 67C314.508 67.7253 314.566 68.4373 314.684 69.136C314.801 69.8347 314.988 70.4667 315.244 71.032C315.505 71.592 315.852 72.04 316.284 72.376C316.721 72.712 317.254 72.88 317.884 72.88C318.422 72.88 318.902 72.7947 319.324 72.624C319.75 72.4533 320.121 72.216 320.436 71.912C320.75 71.608 321.006 71.256 321.204 70.856C321.406 70.456 321.55 70.0293 321.636 69.576H321.86V73H321.66L320.604 72.088C320.252 72.424 319.83 72.688 319.34 72.88C318.854 73.0667 318.316 73.16 317.724 73.16Z" fill="#ECDFCC"/>
</svg>
