<svg width="26" height="29" viewBox="0 0 26 29" fill="none" xmlns="http://www.w3.org/2000/svg">
<g filter="url(#filter0_d_178_179)">
<path d="M11.44 3C10.2428 3.00001 9.06325 3.28892 8.00157 3.84221C6.9399 4.3955 6.02742 5.19682 5.34163 6.17814C4.65584 7.15945 4.21698 8.29177 4.06234 9.47893C3.90769 10.6661 4.04181 11.8731 4.45332 12.9973C4.86482 14.1216 5.54156 15.1299 6.42606 15.9367C7.31056 16.7435 8.37669 17.325 9.53394 17.6317C10.6912 17.9384 11.9054 17.9613 13.0733 17.6985C14.2413 17.4357 15.3287 16.8949 16.243 16.122C16.221 16.393 16.313 16.672 16.521 16.879L20.361 20.719C20.541 20.8991 20.7853 21.0003 21.04 21.0003C21.2946 21.0003 21.5389 20.8991 21.719 20.719C21.899 20.5389 22.0002 20.2947 22.0002 20.04C22.0002 19.7853 21.899 19.5411 21.719 19.361L17.879 15.521C17.7805 15.4225 17.6618 15.3467 17.5311 15.2987C17.4004 15.2507 17.2608 15.2317 17.122 15.243C18.0377 14.1597 18.6247 12.8371 18.8137 11.4312C19.0027 10.0253 18.7858 8.59467 18.1886 7.30795C17.5914 6.02123 16.6389 4.93205 15.4432 4.16879C14.2475 3.40552 12.8585 2.99999 11.44 3ZM5.43997 10.44C5.43997 9.65207 5.59516 8.87185 5.89669 8.1439C6.19822 7.41595 6.64017 6.75451 7.19733 6.19736C7.75448 5.64021 8.41591 5.19825 9.14387 4.89672C9.87182 4.59519 10.652 4.44 11.44 4.44C12.2279 4.44 13.0081 4.59519 13.7361 4.89672C14.464 5.19825 15.1255 5.64021 15.6826 6.19736C16.2398 6.75451 16.6817 7.41595 16.9832 8.1439C17.2848 8.87185 17.44 9.65207 17.44 10.44C17.44 12.0313 16.8078 13.5574 15.6826 14.6826C14.5574 15.8079 13.0313 16.44 11.44 16.44C9.84867 16.44 8.32254 15.8079 7.19733 14.6826C6.07211 13.5574 5.43997 12.0313 5.43997 10.44Z" fill="#ECDFCC"/>
</g>
<defs>
<filter id="filter0_d_178_179" x="-3" y="0" width="32" height="32" filterUnits="userSpaceOnUse" color-interpolation-filters="sRGB">
<feFlood flood-opacity="0" result="BackgroundImageFix"/>
<feColorMatrix in="SourceAlpha" type="matrix" values="0 0 0 0 0 0 0 0 0 0 0 0 0 0 0 0 0 0 127 0" result="hardAlpha"/>
<feOffset dy="4"/>
<feGaussianBlur stdDeviation="2"/>
<feComposite in2="hardAlpha" operator="out"/>
<feColorMatrix type="matrix" values="0 0 0 0 0 0 0 0 0 0 0 0 0 0 0 0 0 0 0.25 0"/>
<feBlend mode="normal" in2="BackgroundImageFix" result="effect1_dropShadow_178_179"/>
<feBlend mode="normal" in="SourceGraphic" in2="effect1_dropShadow_178_179" result="shape"/>
</filter>
</defs>
</svg>
