<svg width="32" height="32" viewBox="0 0 32 32" fill="none" xmlns="http://www.w3.org/2000/svg">
<path d="M16.0019 1.91992C8.23327 1.91992 1.92188 8.23132 1.92188 15.9999C1.92188 23.0522 7.12349 28.8885 13.8981 29.9062L14.6331 30.0174V18.9224H11.3069V16.6699H14.6331V13.6787C14.6331 11.8367 15.0751 10.6236 15.8069 9.86242C16.5386 9.1013 17.6198 8.71743 19.1244 8.71743C20.3274 8.71743 20.7955 8.79032 21.2406 8.84493V10.6887H19.6744C18.7857 10.6887 18.0566 11.1845 17.6781 11.8449C17.2997 12.5053 17.1819 13.2939 17.1819 14.0974V16.6687H21.1006L20.7519 18.9212H17.1819V30.0349L17.9081 29.9362C24.7791 29.0043 30.0819 23.1211 30.0819 15.9999C30.0819 8.23132 23.7705 1.91992 16.0019 1.91992ZM16.0019 3.19992C23.0787 3.19992 28.8019 8.92308 28.8019 15.9999C28.8019 22.227 24.3448 27.3483 18.4619 28.5012V20.2012H21.8494L22.5931 15.3887H18.4619V14.0974C18.4619 13.4334 18.5834 12.8385 18.7881 12.4812C18.9929 12.1238 19.1903 11.9687 19.6744 11.9687H22.5206V7.68617L21.9656 7.61117C21.5818 7.55922 20.7054 7.43742 19.1244 7.43742C17.3944 7.43742 15.9094 7.90868 14.8844 8.97492C13.8593 10.0412 13.3531 11.6288 13.3531 13.6787V15.3899H10.0269V20.2024H13.3531V28.4612C7.56476 27.235 3.20188 22.1596 3.20188 15.9999C3.20188 8.92308 8.92504 3.19992 16.0019 3.19992Z" fill="#ECDFCC"/>
</svg>
