<svg width="32" height="32" viewBox="0 0 32 32" fill="none" xmlns="http://www.w3.org/2000/svg">
<path d="M10.2419 1.91992C5.65466 1.91992 1.92188 5.65271 1.92188 10.2399V21.7599C1.92188 26.3471 5.65466 30.0799 10.2419 30.0799H21.7619C26.3491 30.0799 30.0819 26.3471 30.0819 21.7599V10.2399C30.0819 5.65271 26.3491 1.91992 21.7619 1.91992H10.2419ZM10.2419 3.19992H21.7619C25.6572 3.19992 28.8019 6.34457 28.8019 10.2399V21.7599C28.8019 25.6553 25.6572 28.7999 21.7619 28.7999H10.2419C6.34653 28.7999 3.20187 25.6553 3.20187 21.7599V10.2399C3.20187 6.34457 6.34653 3.19992 10.2419 3.19992ZM23.6819 7.03992C22.9749 7.03992 22.4019 7.613 22.4019 8.31992C22.4019 9.02685 22.9749 9.59992 23.6819 9.59992C24.3888 9.59992 24.9619 9.02685 24.9619 8.31992C24.9619 7.613 24.3888 7.03992 23.6819 7.03992ZM16.0019 8.95992C12.1214 8.95992 8.96187 12.1194 8.96187 15.9999C8.96187 19.8804 12.1214 23.0399 16.0019 23.0399C19.8824 23.0399 23.0419 19.8804 23.0419 15.9999C23.0419 12.1194 19.8824 8.95992 16.0019 8.95992ZM16.0019 10.2399C19.1906 10.2399 21.7619 12.8112 21.7619 15.9999C21.7619 19.1887 19.1906 21.7599 16.0019 21.7599C12.8131 21.7599 10.2419 19.1887 10.2419 15.9999C10.2419 12.8112 12.8131 10.2399 16.0019 10.2399Z" fill="#ECDFCC"/>
</svg>
