<svg width="438" height="77" viewBox="0 0 438 77" fill="none" xmlns="http://www.w3.org/2000/svg">
<path d="M9.648 34.36V34.192H24V34.36H9.648ZM19.848 9.28L32.52 45.832H35.952V46H20.568V45.832H25.248L15.864 16.816L5.688 45.832H11.448V46H0.864V45.832H5.496L18.288 9.28H19.848ZM56.7169 46L39.1729 21.52H46.3249L64.0609 46H56.7169ZM36.4609 46V45.832H44.7409V46H36.4609ZM39.8929 46L51.3169 32.248H51.5329L40.1089 46H39.8929ZM52.7569 46V45.832H65.9569V46H52.7569ZM37.5169 21.688V21.52H50.1169V21.688H37.5169ZM51.3889 33.16L60.8209 21.616H61.0369L51.6289 33.16H51.3889ZM56.7169 21.688V21.52H64.2289V21.688H56.7169ZM71.7664 46V21.52H78.0304V46H71.7664ZM67.6624 46V45.832H82.5904V46H67.6624ZM67.6624 21.688V21.52H82.5904V21.688H67.6624ZM98.7668 46.48C96.2388 46.48 93.9748 45.968 91.9748 44.944C89.9748 43.904 88.3908 42.432 87.2228 40.528C86.0548 38.624 85.4708 36.368 85.4708 33.76C85.4708 31.152 86.0868 28.896 87.3188 26.992C88.5508 25.088 90.1748 23.624 92.1908 22.6C94.2068 21.56 96.3988 21.04 98.7668 21.04C101.135 21.04 103.327 21.56 105.343 22.6C107.375 23.624 109.007 25.088 110.239 26.992C111.471 28.896 112.087 31.152 112.087 33.76C112.087 36.368 111.503 38.624 110.335 40.528C109.167 42.432 107.575 43.904 105.559 44.944C103.543 45.968 101.279 46.48 98.7668 46.48ZM98.7668 46.312C99.9348 46.312 100.927 45.992 101.743 45.352C102.559 44.696 103.215 43.792 103.711 42.64C104.207 41.488 104.567 40.16 104.791 38.656C105.031 37.136 105.151 35.504 105.151 33.76C105.151 32.016 105.015 30.392 104.743 28.888C104.471 27.368 104.063 26.032 103.519 24.88C102.991 23.728 102.327 22.832 101.527 22.192C100.727 21.536 99.8068 21.208 98.7668 21.208C97.7268 21.208 96.8068 21.536 96.0068 22.192C95.2068 22.832 94.5428 23.728 94.0148 24.88C93.4868 26.032 93.0868 27.368 92.8148 28.888C92.5428 30.392 92.4068 32.016 92.4068 33.76C92.4068 35.504 92.5188 37.136 92.7428 38.656C92.9828 40.16 93.3508 41.488 93.8468 42.64C94.3428 43.792 94.9908 44.696 95.7908 45.352C96.6068 45.992 97.5988 46.312 98.7668 46.312ZM128.012 46.48L117.476 21.52H123.836L131.924 40.216L139.052 21.52H139.22L129.908 46.48H128.012ZM115.244 46V45.832H119.732V46H115.244ZM117.404 46V21.688H115.004V21.52H117.572V46H117.404ZM137.108 46V45.832H148.196V46H137.108ZM139.172 46V21.52H147.62V21.688H145.46V46H139.172Z" fill="#ECDFCC"/>
<path d="M6.152 73.16L1.704 61H3.816L7.216 70.16L10.408 61H10.64L6.416 73.16H6.152ZM1.816 61V72.784H3.024V73H0.448V72.784H1.592V61.216H0.368V61H1.816ZM13.792 61V61.216H12.672V72.784H13.792V73H9.296V72.784H10.576V61H13.792ZM19.8763 73.16C19.0443 73.16 18.2976 73.0027 17.6363 72.688C16.9802 72.3733 16.4229 71.936 15.9642 71.376C15.5056 70.816 15.1562 70.1627 14.9162 69.416C14.6816 68.6693 14.5642 67.864 14.5642 67C14.5642 66.136 14.6896 65.3307 14.9402 64.584C15.1962 63.8373 15.5562 63.184 16.0202 62.624C16.4896 62.064 17.0496 61.6267 17.7002 61.312C18.3562 60.9973 19.0816 60.84 19.8763 60.84C20.6763 60.84 21.3989 60.9973 22.0443 61.312C22.6949 61.6267 23.2549 62.064 23.7242 62.624C24.1936 63.184 24.5536 63.8373 24.8043 64.584C25.0549 65.3307 25.1803 66.136 25.1803 67C25.1803 67.864 25.0603 68.6693 24.8203 69.416C24.5856 70.1627 24.2389 70.816 23.7803 71.376C23.3269 71.936 22.7723 72.3733 22.1163 72.688C21.4603 73.0027 20.7136 73.16 19.8763 73.16ZM19.8763 72.96C20.4896 72.96 20.9856 72.8 21.3643 72.48C21.7429 72.16 22.0336 71.7227 22.2362 71.168C22.4443 70.608 22.5856 69.9707 22.6602 69.256C22.7349 68.536 22.7723 67.784 22.7723 67C22.7723 66.2107 22.7269 65.4587 22.6363 64.744C22.5456 64.0293 22.3936 63.3947 22.1803 62.84C21.9669 62.28 21.6709 61.84 21.2923 61.52C20.9189 61.2 20.4469 61.04 19.8763 61.04C19.3056 61.04 18.8309 61.2027 18.4523 61.528C18.0789 61.848 17.7829 62.2853 17.5642 62.84C17.3509 63.3947 17.1989 64.0293 17.1082 64.744C17.0176 65.4587 16.9722 66.2107 16.9722 67C16.9722 67.784 17.0096 68.536 17.0842 69.256C17.1642 69.9707 17.3056 70.6053 17.5082 71.16C17.7109 71.7147 18.0043 72.1547 18.3882 72.48C18.7723 72.8 19.2683 72.96 19.8763 72.96ZM30.8092 61C32.0466 61 33.1079 61.256 33.9932 61.768C34.8839 62.28 35.5666 62.9893 36.0413 63.896C36.5213 64.7973 36.7613 65.832 36.7613 67C36.7613 67.8747 36.6173 68.68 36.3293 69.416C36.0466 70.1467 35.6412 70.7813 35.1132 71.32C34.5906 71.8533 33.9639 72.2667 33.2332 72.56C32.5079 72.8533 31.6999 73 30.8092 73H25.9452V72.784H27.3852V61.216H25.9452V61H30.8092ZM29.4892 72.784H30.8092C31.4759 72.784 32.0332 72.6293 32.4812 72.32C32.9346 72.0053 33.2973 71.5787 33.5693 71.04C33.8466 70.5013 34.0439 69.8853 34.1613 69.192C34.2839 68.4933 34.3453 67.7627 34.3453 67C34.3453 66.2373 34.2759 65.5093 34.1372 64.816C34.0039 64.1227 33.7959 63.5067 33.5132 62.968C33.2306 62.424 32.8652 61.9973 32.4172 61.688C31.9746 61.3733 31.4386 61.216 30.8092 61.216H29.4892V72.784ZM37.5308 73V72.784H38.9708V61.216H37.5308V61H46.4268V64.28H46.2108C46.1628 63.7093 46.0241 63.192 45.7948 62.728C45.5654 62.264 45.2374 61.896 44.8108 61.624C44.3894 61.352 43.8668 61.216 43.2428 61.216H41.0748V72.784H43.0748C43.8054 72.784 44.4054 72.6427 44.8748 72.36C45.3441 72.0773 45.6988 71.6827 45.9388 71.176C46.1788 70.6693 46.3228 70.0773 46.3708 69.4H46.5868V73H37.5308ZM43.6348 68.696C43.5868 68.3387 43.4721 68.0267 43.2908 67.76C43.1094 67.488 42.8854 67.2773 42.6188 67.128C42.3521 66.9787 42.0668 66.904 41.7628 66.904H40.5788V66.688H41.7628C42.0668 66.688 42.3521 66.6187 42.6188 66.48C42.8854 66.3413 43.1094 66.144 43.2908 65.888C43.4721 65.632 43.5868 65.3253 43.6348 64.968H43.8508V68.696H43.6348ZM47.1787 73V72.784H48.6187V61.216H47.1787V61H52.1547V61.216H50.7227V72.784H52.6667C53.2694 72.784 53.7734 72.704 54.1787 72.544C54.5894 72.384 54.9174 72.1547 55.1627 71.856C55.4134 71.5573 55.6001 71.2 55.7227 70.784C55.8454 70.368 55.9254 69.9067 55.9627 69.4H56.1787V73H47.1787ZM66.04 73.16L61.592 61H63.704L67.104 70.16L70.296 61H70.528L66.304 73.16H66.04ZM61.704 61V72.784H62.912V73H60.336V72.784H61.48V61.216H60.256V61H61.704ZM73.68 61V61.216H72.56V72.784H73.68V73H69.184V72.784H70.464V61H73.68ZM76.9883 69.208V68.992H81.9243V69.208H76.9883ZM80.4443 60.768L84.6123 72.784H85.8123V73H80.6683V72.784H82.1883L79.1243 63.304L75.8043 72.784H77.5883V73H74.0603V72.784H75.5563L79.7803 60.768H80.4443ZM88.0406 61V72.784H89.9126V73H86.1926V72.784H87.8166V61.216H86.1926V61H88.0406ZM97.7126 61V61.216H96.0326V73.16H95.7366L87.8806 61H90.3926L95.8086 69.568V61.216H93.9686V61H97.7126ZM101.019 69.208V68.992H105.955V69.208H101.019ZM104.475 60.768L108.643 72.784H109.843V73H104.699V72.784H106.219L103.155 63.304L99.8346 72.784H101.619V73H98.0906V72.784H99.5866L103.811 60.768H104.475ZM116.799 68.328H121.607V68.56H120.735V70.456C120.538 70.7173 120.306 71.0053 120.039 71.32C119.772 71.6293 119.458 71.9253 119.095 72.208C118.732 72.4853 118.306 72.7147 117.815 72.896C117.324 73.072 116.754 73.16 116.103 73.16C114.946 73.16 113.956 72.9013 113.135 72.384C112.319 71.8667 111.695 71.1467 111.263 70.224C110.831 69.296 110.615 68.2213 110.615 67C110.615 66.088 110.759 65.256 111.047 64.504C111.335 63.7467 111.738 63.096 112.255 62.552C112.778 62.0027 113.386 61.5813 114.079 61.288C114.772 60.9893 115.524 60.84 116.335 60.84C116.826 60.84 117.295 60.9253 117.743 61.096C118.196 61.2667 118.599 61.504 118.951 61.808L120.215 61H120.407V64.424H120.183C120.124 63.976 119.988 63.5547 119.775 63.16C119.567 62.76 119.298 62.408 118.967 62.104C118.636 61.8 118.263 61.5627 117.847 61.392C117.431 61.216 116.991 61.128 116.527 61.128C115.898 61.128 115.359 61.296 114.911 61.632C114.463 61.9627 114.1 62.4107 113.823 62.976C113.551 63.536 113.348 64.1653 113.215 64.864C113.087 65.5573 113.023 66.2693 113.023 67C113.023 67.7253 113.068 68.4427 113.159 69.152C113.25 69.856 113.407 70.4933 113.631 71.064C113.86 71.6347 114.175 72.0907 114.575 72.432C114.975 72.7733 115.484 72.944 116.103 72.944C116.503 72.944 116.842 72.872 117.119 72.728C117.402 72.5787 117.634 72.3947 117.815 72.176C117.996 71.9573 118.14 71.7413 118.247 71.528C118.359 71.3093 118.439 71.1333 118.487 71V68.56H116.799V68.328ZM121.887 73V72.784H123.327V61.216H121.887V61H130.783V64.28H130.567C130.519 63.7093 130.38 63.192 130.151 62.728C129.921 62.264 129.593 61.896 129.167 61.624C128.745 61.352 128.223 61.216 127.599 61.216H125.431V72.784H127.431C128.161 72.784 128.761 72.6427 129.231 72.36C129.7 72.0773 130.055 71.6827 130.295 71.176C130.535 70.6693 130.679 70.0773 130.727 69.4H130.943V73H121.887ZM127.991 68.696C127.943 68.3387 127.828 68.0267 127.647 67.76C127.465 67.488 127.241 67.2773 126.975 67.128C126.708 66.9787 126.423 66.904 126.119 66.904H124.935V66.688H126.119C126.423 66.688 126.708 66.6187 126.975 66.48C127.241 66.3413 127.465 66.144 127.647 65.888C127.828 65.632 127.943 65.3253 127.991 64.968H128.207V68.696H127.991ZM137.319 73.16L132.871 61H134.983L138.383 70.16L141.575 61H141.807L137.583 73.16H137.319ZM132.983 61V72.784H134.191V73H131.615V72.784H132.759V61.216H131.535V61H132.983ZM144.959 61V61.216H143.839V72.784H144.959V73H140.463V72.784H141.743V61H144.959ZM145.339 73V72.784H146.779V61.216H145.339V61H154.235V64.28H154.019C153.971 63.7093 153.832 63.192 153.603 62.728C153.374 62.264 153.046 61.896 152.619 61.624C152.198 61.352 151.675 61.216 151.051 61.216H148.883V72.784H150.883C151.614 72.784 152.214 72.6427 152.683 72.36C153.152 72.0773 153.507 71.6827 153.747 71.176C153.987 70.6693 154.131 70.0773 154.179 69.4H154.395V73H145.339ZM151.443 68.696C151.395 68.3387 151.28 68.0267 151.099 67.76C150.918 67.488 150.694 67.2773 150.427 67.128C150.16 66.9787 149.875 66.904 149.571 66.904H148.387V66.688H149.571C149.875 66.688 150.16 66.6187 150.427 66.48C150.694 66.3413 150.918 66.144 151.099 65.888C151.28 65.632 151.395 65.3253 151.443 64.968H151.659V68.696H151.443ZM156.835 61V72.784H158.707V73H154.987V72.784H156.611V61.216H154.987V61H156.835ZM166.507 61V61.216H164.827V73.16H164.531L156.675 61H159.187L164.603 69.568V61.216H162.763V61H166.507ZM169.297 73V72.784H171.057V61.216H169.817C169.374 61.216 168.998 61.304 168.689 61.48C168.38 61.656 168.126 61.904 167.929 62.224C167.732 62.5387 167.58 62.912 167.473 63.344C167.372 63.7707 167.302 64.2373 167.265 64.744H167.041V61H177.169V64.744H176.953C176.916 64.2373 176.844 63.7707 176.737 63.344C176.63 62.912 176.478 62.5387 176.281 62.224C176.084 61.904 175.83 61.656 175.521 61.48C175.212 61.304 174.836 61.216 174.393 61.216H173.153V72.784H174.913V73H169.297ZM177.548 73V72.784H178.988V61.216H177.548V61H182.524V61.216H181.092V72.784H183.036C183.639 72.784 184.143 72.704 184.548 72.544C184.959 72.384 185.287 72.1547 185.532 71.856C185.783 71.5573 185.97 71.2 186.092 70.784C186.215 70.368 186.295 69.9067 186.332 69.4H186.548V73H177.548ZM186.978 73V72.784H188.418V61.216H186.978V61H191.954V61.216H190.522V72.784H192.466C193.068 72.784 193.572 72.704 193.978 72.544C194.388 72.384 194.716 72.1547 194.962 71.856C195.212 71.5573 195.399 71.2 195.522 70.784C195.644 70.368 195.724 69.9067 195.762 69.4H195.978V73H186.978ZM202.423 73.16C201.276 73.16 200.282 72.8933 199.439 72.36C198.602 71.8267 197.951 71.096 197.487 70.168C197.028 69.24 196.799 68.184 196.799 67C196.799 65.8107 197.028 64.7547 197.487 63.832C197.951 62.904 198.602 62.1733 199.439 61.64C200.282 61.1067 201.276 60.84 202.423 60.84C202.935 60.84 203.415 60.928 203.863 61.104C204.311 61.28 204.706 61.528 205.047 61.848L206.207 61H206.399V64.424H206.167C206.044 63.768 205.81 63.192 205.463 62.696C205.122 62.2 204.703 61.8133 204.207 61.536C203.711 61.2587 203.17 61.12 202.583 61.12C201.954 61.12 201.42 61.288 200.983 61.624C200.551 61.96 200.204 62.4107 199.943 62.976C199.687 63.536 199.5 64.1653 199.383 64.864C199.266 65.5573 199.207 66.2693 199.207 67C199.207 67.7253 199.266 68.4373 199.383 69.136C199.5 69.8347 199.687 70.4667 199.943 71.032C200.204 71.592 200.551 72.04 200.983 72.376C201.42 72.712 201.954 72.88 202.583 72.88C203.122 72.88 203.602 72.7947 204.023 72.624C204.45 72.4533 204.82 72.216 205.135 71.912C205.45 71.608 205.706 71.256 205.903 70.856C206.106 70.456 206.25 70.0293 206.335 69.576H206.559V73H206.359L205.303 72.088C204.951 72.424 204.53 72.688 204.039 72.88C203.554 73.0667 203.015 73.16 202.423 73.16Z" fill="#ECDFCC"/>
</svg>
