<svg width="32" height="32" viewBox="0 0 32 32" fill="none" xmlns="http://www.w3.org/2000/svg">
<path d="M16.0012 1.2793C7.8792 1.2793 1.28125 7.87725 1.28125 15.9993C1.28125 24.1213 7.8792 30.7193 16.0012 30.7193C24.1233 30.7193 30.7212 24.1213 30.7212 15.9993C30.7212 7.87725 24.1233 1.2793 16.0012 1.2793ZM16.0012 2.5593C23.4315 2.5593 29.4412 8.56901 29.4412 15.9993C29.4412 23.4296 23.4315 29.4393 16.0012 29.4393C8.57096 29.4393 2.56125 23.4296 2.56125 15.9993C2.56125 8.56901 8.57096 2.5593 16.0012 2.5593ZM21.8175 8.9818C21.3797 8.9818 20.8879 9.08319 20.3125 9.29055C19.4191 9.61247 8.91052 14.0743 7.715 14.5818C7.03148 14.8724 5.75875 15.4128 5.75875 16.7018C5.75875 17.5562 6.25941 18.1673 7.24501 18.5193C7.77493 18.7081 9.03352 19.0896 9.76376 19.2905C10.0735 19.3757 10.4027 19.4193 10.7413 19.4193C11.4037 19.4193 12.0703 19.2542 12.5925 18.963C12.588 19.0706 12.591 19.1792 12.6038 19.288C12.6825 19.96 13.0969 20.5921 13.7113 20.9793C14.1132 21.2327 17.396 23.4324 17.8863 23.7818C18.5749 24.274 19.3362 24.5343 20.0863 24.5343C21.5199 24.5343 22.0008 23.0541 22.2325 22.343C22.5685 21.3107 23.8267 12.9159 23.9688 11.4355C24.0654 10.4211 23.6426 9.58582 22.8375 9.20054C22.5361 9.05526 22.1919 8.9818 21.8175 8.9818ZM21.8175 10.2618C21.9935 10.2618 22.1506 10.2909 22.2838 10.3555C22.5865 10.5008 22.7405 10.8247 22.6938 11.3143C22.5389 12.929 21.2838 21.125 21.0163 21.9468C20.7871 22.6495 20.5458 23.2543 20.0863 23.2543C19.6267 23.2543 19.1247 23.0932 18.63 22.7393C18.1353 22.386 14.8501 20.1829 14.3938 19.8955C13.9938 19.6434 13.5704 19.0148 14.1663 18.4068C14.6571 17.9063 18.3807 14.2924 18.6988 13.9743C18.9356 13.7369 18.8248 13.4505 18.5925 13.4505C18.5125 13.4505 18.4167 13.4843 18.3175 13.5655C17.9284 13.8836 12.5035 17.5137 12.0337 17.8055C11.7227 17.9988 11.2411 18.138 10.7413 18.138C10.5281 18.138 10.3124 18.1125 10.105 18.0555C9.38308 17.8565 8.16137 17.4858 7.67625 17.313C7.20969 17.1466 7.04 16.9872 7.04 16.7018C7.04 16.296 7.61273 16.0159 8.21625 15.7593C8.85369 15.4886 19.8835 10.8047 20.7462 10.4943C21.1456 10.3497 21.5109 10.2618 21.8175 10.2618Z" fill="#ECDFCC"/>
</svg>
