<svg width="24" height="24" viewBox="0 0 24 24" fill="none" xmlns="http://www.w3.org/2000/svg">
<path d="M2.25 6.375C2.25 6.27554 2.28951 6.18016 2.35984 6.10983C2.43016 6.03951 2.52554 6 2.625 6H21.375C21.4745 6 21.5698 6.03951 21.6402 6.10983C21.7105 6.18016 21.75 6.27554 21.75 6.375C21.75 6.47446 21.7105 6.56984 21.6402 6.64017C21.5698 6.71049 21.4745 6.75 21.375 6.75H2.625C2.52554 6.75 2.43016 6.71049 2.35984 6.64017C2.28951 6.56984 2.25 6.47446 2.25 6.375ZM5.25 11.625C5.25 11.5255 5.28951 11.4302 5.35984 11.3598C5.43016 11.2895 5.52554 11.25 5.625 11.25H18.375C18.4745 11.25 18.5698 11.2895 18.6402 11.3598C18.7105 11.4302 18.75 11.5255 18.75 11.625C18.75 11.7245 18.7105 11.8198 18.6402 11.8902C18.5698 11.9605 18.4745 12 18.375 12H5.625C5.52554 12 5.43016 11.9605 5.35984 11.8902C5.28951 11.8198 5.25 11.7245 5.25 11.625ZM8.625 16.5C8.52554 16.5 8.43016 16.5395 8.35983 16.6098C8.28951 16.6802 8.25 16.7755 8.25 16.875C8.25 16.9745 8.28951 17.0698 8.35983 17.1402C8.43016 17.2105 8.52554 17.25 8.625 17.25H15.375C15.4745 17.25 15.5698 17.2105 15.6402 17.1402C15.7105 17.0698 15.75 16.9745 15.75 16.875C15.75 16.7755 15.7105 16.6802 15.6402 16.6098C15.5698 16.5395 15.4745 16.5 15.375 16.5H8.625Z" fill="#ECDFCC"/>
</svg>
